<svg xmlns="http://www.w3.org/2000/svg" width="48" height="48" viewBox="0 0 48 48">
  <g id="Group_1698" data-name="Group 1698" transform="translate(-720 -296)">
    <path id="Path_2254" data-name="Path 2254" d="M24,2a22.006,22.006,0,0,0-8.563,42.272A22.006,22.006,0,0,0,32.563,3.728,21.86,21.86,0,0,0,24,2m0-2A24,24,0,1,1,0,24,24,24,0,0,1,24,0Z" transform="translate(720 296)" fill="#074887"/>
    <g id="Group_1188" data-name="Group 1188" transform="translate(735.75 314.166)">
      <g id="Group_1181" data-name="Group 1181" transform="translate(0 5.834)">
        <path id="Path_2259" data-name="Path 2259" d="M0,17.5a1,1,0,0,1-1-1V0A1,1,0,0,1,0-1,1,1,0,0,1,1,0V16.5A1,1,0,0,1,0,17.5Z" transform="translate(16.5 0) rotate(90)" fill="#074887"/>
      </g>
      <g id="Group_1181-2" data-name="Group 1181" transform="translate(5.373 5.834) rotate(-45)">
        <path id="Path_2258" data-name="Path 2258" d="M0,9.25a1,1,0,0,1-1-1V0A1,1,0,0,1,0-1,1,1,0,0,1,1,0V8.25A1,1,0,0,1,0,9.25Z" transform="translate(8.25)" fill="#074887"/>
        <path id="Path_2259-2" data-name="Path 2259" d="M0,9.25a1,1,0,0,1-1-1V0A1,1,0,0,1,0-1,1,1,0,0,1,1,0V8.25A1,1,0,0,1,0,9.25Z" transform="translate(8.25 8.25) rotate(90)" fill="#074887"/>
      </g>
    </g>
  </g>
</svg>
