<svg xmlns="http://www.w3.org/2000/svg" width="32" height="32" viewBox="0 0 32 32">
  <g id="Group_1821" data-name="Group 1821" transform="translate(-1026 -380)">
    <g id="Component_52_2" data-name="Component 52 – 2" transform="translate(1058 412) rotate(180)">
      <g id="Group_1204" data-name="Group 1204" transform="translate(-816 -344)" opacity="0">
        <path id="Path_2255" data-name="Path 2255" d="M16,0A16,16,0,1,1,0,16,16,16,0,0,1,16,0Z" transform="translate(816 344)" fill="#0e0d0d"/>
        <path id="Path_2256" data-name="Path 2256" d="M-13073-13198l5,5.5-5,5.5" transform="translate(13902.499 13552.5)" fill="none" stroke="#fff" stroke-linecap="round" stroke-linejoin="round" stroke-width="2"/>
      </g>
      <g id="Group_1205" data-name="Group 1205" transform="translate(-768 -344)">
        <g id="Path_2254" data-name="Path 2254" transform="translate(768 344)" fill="none">
          <path d="M16,0A16,16,0,1,1,0,16,16,16,0,0,1,16,0Z" stroke="none"/>
          <path d="M 16 2 C 12.26045989990234 2 8.744749069213867 3.456249237060547 6.100500106811523 6.100500106811523 C 3.456249237060547 8.744749069213867 2 12.26045989990234 2 16 C 2 19.73954010009766 3.456249237060547 23.2552490234375 6.100500106811523 25.89949989318848 C 8.744749069213867 28.54375076293945 12.26045989990234 30 16 30 C 19.73954010009766 30 23.2552490234375 28.54375076293945 25.89949989318848 25.89949989318848 C 28.54375076293945 23.2552490234375 30 19.73954010009766 30 16 C 30 12.26045989990234 28.54375076293945 8.744749069213867 25.89949989318848 6.100500106811523 C 23.2552490234375 3.456249237060547 19.73954010009766 2 16 2 M 16 0 C 24.8365592956543 0 32 7.163440704345703 32 16 C 32 24.8365592956543 24.8365592956543 32 16 32 C 7.163440704345703 32 0 24.8365592956543 0 16 C 0 7.163440704345703 7.163440704345703 0 16 0 Z" stroke="none" fill="#0e0d0d"/>
        </g>
        <path id="Path_2253" data-name="Path 2253" d="M-13073-13198l5,5.5-5,5.5" transform="translate(13854.499 13552.5)" fill="none" stroke="#0e0d0d" stroke-linecap="round" stroke-linejoin="round" stroke-width="2"/>
      </g>
    </g>
  </g>
</svg>
